<svg height="512pt" viewBox="0 0 512 512" width="512pt" xmlns="http://www.w3.org/2000/svg" xmlns:xlink="http://www.w3.org/1999/xlink"><linearGradient id="a" gradientTransform="matrix(1 0 0 -1 0 -12310)" gradientUnits="userSpaceOnUse" x1="0" x2="512" y1="-12566" y2="-12566"><stop offset="0" stop-color="#00f38d"/><stop offset="1" stop-color="#009eff"/></linearGradient><path d="m512 256c0 141.386719-114.613281 256-256 256s-256-114.613281-256-256 114.613281-256 256-256 256 114.613281 256 256zm0 0" fill="url(#a)"/><g fill="#fff"><path d="m204.3125 244.898438h-76.726562c-22.378907 0-40.585938-18.207032-40.585938-40.585938v-76.726562c0-22.378907 18.207031-40.585938 40.585938-40.585938h76.726562c22.378906 0 40.585938 18.207031 40.585938 40.585938v76.726562c0 22.378906-18.207032 40.585938-40.585938 40.585938zm-76.726562-127.898438c-5.835938 0-10.585938 4.75-10.585938 10.585938v76.726562c0 5.835938 4.75 10.585938 10.585938 10.585938h76.726562c5.835938 0 10.585938-4.75 10.585938-10.585938v-76.726562c0-5.835938-4.75-10.585938-10.585938-10.585938zm0 0"/><path d="m383.898438 244.898438h-75.695313c-22.664063 0-41.101563-18.4375-41.101563-41.101563v-75.695313c0-22.664062 18.4375-41.101562 41.101563-41.101562h75.695313c22.664062 0 41.101562 18.4375 41.101562 41.101562v75.695313c0 22.664063-18.4375 41.101563-41.101562 41.101563zm-75.695313-127.898438c-6.121094 0-11.101563 4.980469-11.101563 11.101562v75.695313c0 6.121094 4.980469 11.101563 11.101563 11.101563h75.695313c6.121093 0 11.101562-4.980469 11.101562-11.101563v-75.695313c0-6.121093-4.980469-11.101562-11.101562-11.101562zm0 0"/><path d="m204.3125 425h-76.726562c-22.378907 0-40.585938-18.207031-40.585938-40.585938v-76.726562c0-22.378906 18.207031-40.585938 40.585938-40.585938h76.726562c22.378906 0 40.585938 18.207032 40.585938 40.585938v76.726562c0 22.378907-18.207032 40.585938-40.585938 40.585938zm-76.726562-127.898438c-5.835938 0-10.585938 4.75-10.585938 10.585938v76.726562c0 5.839844 4.75 10.585938 10.585938 10.585938h76.726562c5.835938 0 10.585938-4.746094 10.585938-10.585938v-76.726562c0-5.835938-4.75-10.585938-10.585938-10.585938zm0 0"/><path d="m383.898438 425h-75.695313c-22.664063 0-41.101563-18.4375-41.101563-41.101562v-75.695313c0-22.664063 18.4375-41.101563 41.101563-41.101563h75.695313c22.664062 0 41.101562 18.4375 41.101562 41.101563v75.695313c0 22.664062-18.4375 41.101562-41.101562 41.101562zm-75.695313-127.898438c-6.121094 0-11.101563 4.980469-11.101563 11.101563v75.695313c0 6.121093 4.980469 11.101562 11.101563 11.101562h75.695313c6.121093 0 11.101562-4.980469 11.101562-11.101562v-75.695313c0-6.121094-4.980469-11.101563-11.101562-11.101563zm0 0"/></g></svg>