<svg id="Capa_1" enable-background="new 0 0 512 512" height="512" viewBox="0 0 512 512" width="512" xmlns="http://www.w3.org/2000/svg" xmlns:xlink="http://www.w3.org/1999/xlink"><linearGradient id="SVGID_1_" gradientUnits="userSpaceOnUse" x1="256" x2="256" y1="512" y2="0"><stop offset="0" stop-color="#00b59c"/><stop offset="1" stop-color="#9cffac"/></linearGradient><g><g><g><path d="m256 91c-90.981 0-165 74.019-165 165s74.019 165 165 165 165-74.019 165-165-74.019-165-165-165zm134.162 150h-59.452c-1.385-36.316-7.777-70.188-18.356-96.637-1.956-4.891-4.043-9.458-6.241-13.714 45.257 18.158 78.473 60.144 84.049 110.351zm-268.324 30h59.452c1.385 36.316 7.777 70.188 18.356 96.637 1.956 4.891 4.043 9.458 6.241 13.714-45.257-18.158-78.473-60.144-84.049-110.351zm77.808-126.637c-10.58 26.449-16.972 60.321-18.356 96.637h-59.452c5.576-50.207 38.792-92.193 84.05-110.351-2.199 4.257-4.285 8.823-6.242 13.714zm84.854 212.132c-8.385 20.961-19.572 34.505-28.5 34.505s-20.115-13.544-28.5-34.505c-9.234-23.085-14.861-53.018-16.189-85.495h89.377c-1.328 32.477-6.955 62.41-16.188 85.495zm-73.188-115.495c1.328-32.477 6.955-62.41 16.189-85.495 8.384-20.961 19.571-34.505 28.499-34.505s20.115 13.544 28.5 34.505c9.234 23.085 14.861 53.018 16.189 85.495zm94.8 140.351c2.198-4.256 4.285-8.823 6.241-13.714 10.58-26.449 16.972-60.321 18.356-96.637h59.452c-5.575 50.207-38.791 92.193-84.049 110.351zm205.888-125.351c0-140.959-115.05-256-256-256-31.421 0-63.595 6.575-95.628 19.542-7.679 3.108-11.384 11.853-8.276 19.532 3.109 7.679 11.854 11.384 19.533 8.276 28.439-11.513 56.826-17.35 84.371-17.35 124.617 0 226 101.383 226 226 0 45.471-14 89.304-40.596 127.548-15.989-5.926-34.692-2.489-47.519 10.338-17.544 17.545-17.544 46.094 0 63.64 17.545 17.544 46.094 17.546 63.64 0 14.792-14.791 17.112-37.402 6.965-54.648 31.118-43.8 47.51-94.333 47.51-146.878zm-75.687 180.312c-5.848 5.849-15.364 5.849-21.213 0s-5.849-15.365 0-21.213c5.848-5.849 15.365-5.849 21.214 0 5.847 5.849 5.847 15.365-.001 21.213zm-95.941 28.338c-28.441 11.513-56.828 17.35-84.372 17.35-124.617 0-226-101.383-226-226 0-45.471 14-89.304 40.596-127.548 16.308 6.044 34.903 2.278 47.519-10.338 17.545-17.545 17.545-46.094 0-63.639-17.545-17.545-46.095-17.545-63.64 0-15.107 15.107-16.949 37.771-6.97 54.656-31.115 43.797-47.505 94.327-47.505 146.869 0 140.959 115.049 256 256 256 31.421 0 63.595-6.575 95.628-19.542 7.679-3.108 11.384-11.853 8.276-19.532-3.109-7.679-11.854-11.384-19.532-8.276zm-264.685-388.962c5.848-5.848 15.365-5.849 21.213 0 5.849 5.849 5.849 15.365 0 21.213-5.849 5.849-15.365 5.849-21.214 0-5.861-5.863-5.861-15.351.001-21.213z" fill="url(#SVGID_1_)"/></g></g></g></svg>